<?xml version="1.0" encoding="UTF-8"?>
<svg id="Layer_2" data-name="Layer 2" xmlns="http://www.w3.org/2000/svg" viewBox="0 0 531.86 89.44">
  <defs>
    <style>
      .cls-1 {
        fill: #fff;
        font-family: CenturyGothic, 'Century Gothic';
        font-size: 51px;
        stroke: #fff;
        stroke-miterlimit: 10;
      }

      .cls-2 {
        fill: #679fd6;
        stroke-width: 0px;
      }
    </style>
  </defs>
  <g id="Layer_2-2" data-name="Layer 2">
    <g>
      <circle class="cls-2" cx="39.05" cy="10.65" r="10.65"/>
      <path class="cls-2" d="M39.58,76.53c5.17-.35,9.29-3.84,10.09-9.08.8-4.86.24-8.47,3.79-12.51,1.64-1.91,3.79-3.48,6.13-4.46,5.96-2.41,12.73-.86,16.47-6.44,2.57-3.51,2.78-8.74.28-12.26-2.34-3.5-7.31-4.73-11.27-3.6-5.22,1.43-6.66,5.8-7.36,10.7-.79,5.97-3.55,11.06-8.65,14.41-6.37,4.13-13.59,4.14-19.97.03-4.19-2.72-7.22-7.12-8.23-12.01-.73-3.26-.9-7.04-2.88-9.76-3.63-5.1-12.49-4.96-16.09.05-3.46,4.58-1.97,11.97,2.83,15.07,3.03,2.02,6.6,2,10.09,2.72,3.55.62,7.06,2.48,9.49,5.18,4.14,4.4,3.19,8.3,4.29,13.66.48,2.06,1.44,4.02,3.04,5.44,2.11,1.89,5.09,2.99,7.9,2.86h.05Z"/>
    </g>
    <text class="cls-1" transform="translate(96.22 52.42)"><tspan x="0" y="0">AVALANCHELABS</tspan></text>
  </g>
</svg>