<?xml version="1.0" encoding="UTF-8"?>
<!DOCTYPE svg PUBLIC "-//W3C//DTD SVG 1.1//EN" "http://www.w3.org/Graphics/SVG/1.1/DTD/svg11.dtd">
<svg xmlns="http://www.w3.org/2000/svg" version="1.1" width="833px" height="231px" style="shape-rendering:geometricPrecision; text-rendering:geometricPrecision; image-rendering:optimizeQuality; fill-rule:evenodd; clip-rule:evenodd" xmlns:xlink="http://www.w3.org/1999/xlink">
<g><path style="opacity:0.753" fill="#5474a9" d="M 120.5,69.5 C 118.079,69.1218 115.746,68.4552 113.5,67.5C 113.167,67.5 112.833,67.5 112.5,67.5C 111.903,66.8614 111.07,66.528 110,66.5C 106.455,67.4045 102.955,68.4045 99.5,69.5C 104.207,64.3608 109.874,63.1941 116.5,66C 118.324,66.66 119.657,67.8267 120.5,69.5 Z"/></g>
<g><path style="opacity:1" fill="#5e98e3" d="M 112.5,67.5 C 108.985,67.8789 105.652,68.8789 102.5,70.5C 101.064,74.0864 99.3973,77.5864 97.5,81C 99.0931,88.6271 103.76,92.7938 111.5,93.5C 111.281,92.325 111.614,91.325 112.5,90.5C 113.328,91.4147 114.328,92.0814 115.5,92.5C 118.524,91.4757 120.524,89.4757 121.5,86.5C 121.064,83.8214 120.564,81.1547 120,78.5C 118.757,79.3363 117.59,79.003 116.5,77.5C 118.738,75.7415 119.738,73.4082 119.5,70.5C 116.911,70.539 114.911,69.539 113.5,67.5C 115.746,68.4552 118.079,69.1218 120.5,69.5C 124.221,72.7776 126.221,76.9443 126.5,82C 125.561,87.733 122.561,91.8996 117.5,94.5C 107.974,97.2339 100.974,94.2339 96.5,85.5C 95.5108,81.8927 95.1774,78.226 95.5,74.5C 96.0798,72.2512 97.4131,70.5846 99.5,69.5C 102.955,68.4045 106.455,67.4045 110,66.5C 111.07,66.528 111.903,66.8614 112.5,67.5 Z"/></g>
<g><path style="opacity:1" fill="#59a1fc" d="M 112.5,67.5 C 112.833,67.5 113.167,67.5 113.5,67.5C 114.911,69.539 116.911,70.539 119.5,70.5C 119.738,73.4082 118.738,75.7415 116.5,77.5C 117.59,79.003 118.757,79.3363 120,78.5C 120.564,81.1547 121.064,83.8214 121.5,86.5C 120.524,89.4757 118.524,91.4757 115.5,92.5C 114.328,92.0814 113.328,91.4147 112.5,90.5C 111.614,91.325 111.281,92.325 111.5,93.5C 103.76,92.7938 99.0931,88.6271 97.5,81C 99.3973,77.5864 101.064,74.0864 102.5,70.5C 105.652,68.8789 108.985,67.8789 112.5,67.5 Z"/></g>
<g><path style="opacity:0.878" fill="#4f6a9a" d="M 95.5,74.5 C 95.1774,78.226 95.5108,81.8927 96.5,85.5C 100.974,94.2339 107.974,97.2339 117.5,94.5C 108.174,98.95 100.674,96.6167 95,87.5C 92.894,82.9517 93.0607,78.6184 95.5,74.5 Z"/></g>
<g><path style="opacity:0.392" fill="#707081" d="M 231.5,98.5 C 234.304,97.3622 237.304,97.1955 240.5,98C 241.252,98.6708 241.586,99.5041 241.5,100.5C 238.495,98.7006 235.162,98.0339 231.5,98.5 Z"/></g>
<g><path style="opacity:0.376" fill="#78798c" d="M 269.5,98.5 C 266.287,98.19 263.287,98.5233 260.5,99.5C 259.957,99.44 259.624,99.1067 259.5,98.5C 262.98,97.1944 266.313,97.1944 269.5,98.5 Z"/></g>
<g><path style="opacity:0.392" fill="#727486" d="M 289.5,98.5 C 292.687,97.1944 296.02,97.1944 299.5,98.5C 299.376,99.1067 299.043,99.44 298.5,99.5C 295.713,98.5233 292.713,98.19 289.5,98.5 Z"/></g>
<g><path style="opacity:0.376" fill="#78788a" d="M 328.5,99.5 C 325.167,98.1667 321.833,98.1667 318.5,99.5C 319.694,98.2227 321.36,97.5561 323.5,97.5C 325.64,97.5561 327.306,98.2227 328.5,99.5 Z"/></g>
<g><path style="opacity:0.377" fill="#79788c" d="M 399.5,98.5 C 402.304,97.3622 405.304,97.1955 408.5,98C 409.38,99.3561 409.714,100.856 409.5,102.5C 408.751,101.469 408.085,100.302 407.5,99C 404.854,98.5026 402.187,98.3359 399.5,98.5 Z"/></g>
<g><path style="opacity:1" fill="#e4e3e8" d="M 483.5,116.5 C 482.167,118.833 482.167,121.167 483.5,123.5C 484.75,126.067 485.917,128.733 487,131.5C 488.085,132.293 489.252,132.96 490.5,133.5C 491.72,132.289 492.887,132.289 494,133.5C 496.388,131.602 498.888,129.935 501.5,128.5C 509.769,130.012 510.435,133.512 503.5,139C 495.871,143.66 488.204,143.66 480.5,139C 471.822,127.208 471.322,115.041 479,102.5C 485.761,97.3045 493.261,96.1378 501.5,99C 510.736,104.773 510.236,108.94 500,111.5C 496.797,106.084 492.464,105.084 487,108.5C 485.519,111.11 484.352,113.777 483.5,116.5 Z"/></g>
<g><path style="opacity:0.376" fill="#808090" d="M 569.5,133.5 C 568.518,130.038 568.185,126.371 568.5,122.5C 572.5,122.5 576.5,122.5 580.5,122.5C 580.5,120.167 580.5,117.833 580.5,115.5C 576.5,115.5 572.5,115.5 568.5,115.5C 568.5,112.167 568.5,108.833 568.5,105.5C 575.5,105.5 582.5,105.5 589.5,105.5C 589.5,103.167 589.5,100.833 589.5,98.5C 579.833,98.5 570.167,98.5 560.5,98.5C 560.5,112.833 560.5,127.167 560.5,141.5C 559.504,127.01 559.171,112.343 559.5,97.5C 569.833,97.5 580.167,97.5 590.5,97.5C 590.5,100.5 590.5,103.5 590.5,106.5C 583.774,106.205 577.108,106.538 570.5,107.5C 569.231,109.695 569.231,111.861 570.5,114C 574.152,114.499 577.818,114.665 581.5,114.5C 581.5,117.5 581.5,120.5 581.5,123.5C 577.5,123.5 573.5,123.5 569.5,123.5C 569.5,126.833 569.5,130.167 569.5,133.5 Z"/></g>
<g><path style="opacity:0.373" fill="#6f6f82" d="M 647.5,98.5 C 650.304,97.3622 653.304,97.1955 656.5,98C 657.252,98.6708 657.586,99.5041 657.5,100.5C 654.495,98.7006 651.162,98.0339 647.5,98.5 Z"/></g>
<g><path style="opacity:0.999" fill="#e3e3e8" d="M 731.5,106.5 C 728.833,108.167 728.833,109.833 731.5,111.5C 737.345,113.507 743.012,116.007 748.5,119C 756.5,129.318 754.5,136.984 742.5,142C 731.735,144.449 724.069,140.782 719.5,131C 723.989,126.2 727.989,126.533 731.5,132C 736.388,134.62 740.388,133.786 743.5,129.5C 742.96,128.252 742.293,127.085 741.5,126C 734.713,123.965 728.547,120.799 723,116.5C 718.497,104.923 722.831,98.2561 736,96.5C 743.092,96.9566 748.259,100.29 751.5,106.5C 749.206,108.388 746.539,109.722 743.5,110.5C 740.412,106.283 736.412,104.95 731.5,106.5 Z"/></g>
<g><path style="opacity:1" fill="#ededf0" d="M 231.5,98.5 C 235.162,98.0339 238.495,98.7006 241.5,100.5C 241.5,101.167 241.5,101.833 241.5,102.5C 241.427,104.027 242.094,105.027 243.5,105.5C 247.532,117.093 251.865,128.593 256.5,140C 255.991,141.169 255.158,142.002 254,142.5C 248.175,142.82 245.008,140.154 244.5,134.5C 242.085,133.186 239.252,132.519 236,132.5C 233.167,132.667 230.333,132.833 227.5,133C 226.748,133.671 226.414,134.504 226.5,135.5C 226.274,138.555 224.941,140.889 222.5,142.5C 219.94,141.344 217.44,141.344 215,142.5C 214.5,142 214,141.5 213.5,141C 219.61,126.825 225.61,112.658 231.5,98.5 Z M 234.5,114.5 C 235.609,114.557 236.609,114.89 237.5,115.5C 237.253,117.858 237.919,119.858 239.5,121.5C 239.5,122.5 239.5,123.5 239.5,124.5C 236.813,124.664 234.146,124.497 231.5,124C 232.167,122.667 232.833,121.333 233.5,120C 233.272,119.601 232.938,119.435 232.5,119.5C 233.167,117.833 233.833,116.167 234.5,114.5 Z"/></g>
<g><path style="opacity:1" fill="#e4e4e8" d="M 269.5,98.5 C 272.893,107.012 275.893,115.679 278.5,124.5C 278.238,125.978 278.571,127.311 279.5,128.5C 280.477,126.589 281.143,124.589 281.5,122.5C 283.598,114.205 286.265,106.205 289.5,98.5C 292.713,98.19 295.713,98.5233 298.5,99.5C 296.062,108.373 293.062,117.039 289.5,125.5C 288.463,126.93 287.796,128.597 287.5,130.5C 286.801,134.096 285.801,137.596 284.5,141C 283.584,141.374 282.75,141.874 282,142.5C 279.333,141.833 276.667,141.167 274,140.5C 269.397,126.857 264.897,113.19 260.5,99.5C 263.287,98.5233 266.287,98.19 269.5,98.5 Z"/></g>
<g><path style="opacity:1" fill="#e9eaed" d="M 328.5,99.5 C 334.081,113.007 339.414,126.673 344.5,140.5C 341.216,141.657 337.882,141.824 334.5,141C 333.536,139.275 332.869,137.441 332.5,135.5C 332.5,134.5 332.5,133.5 332.5,132.5C 326.074,131.88 320.074,132.547 314.5,134.5C 314.455,141.057 311.455,143.391 305.5,141.5C 303.952,141.179 303.285,140.179 303.5,138.5C 308.225,125.385 313.225,112.385 318.5,99.5C 321.833,98.1667 325.167,98.1667 328.5,99.5 Z M 324.5,114.5 C 325.156,117.962 326.489,121.128 328.5,124C 325.446,124.821 322.446,124.655 319.5,123.5C 320.292,121.164 320.958,118.498 321.5,115.5C 322.391,114.89 323.391,114.557 324.5,114.5 Z"/></g>
<g><path style="opacity:1" fill="#fbfbfc" d="M 359.5,98.5 C 359.5,109.167 359.5,119.833 359.5,130.5C 359.5,131.5 359.5,132.5 359.5,133.5C 366.5,133.5 373.5,133.5 380.5,133.5C 380.5,136.167 380.5,138.833 380.5,141.5C 370.833,141.5 361.167,141.5 351.5,141.5C 351.5,127.167 351.5,112.833 351.5,98.5C 354.167,98.5 356.833,98.5 359.5,98.5 Z"/></g>
<g><path style="opacity:1" fill="#edeef0" d="M 399.5,98.5 C 402.187,98.3359 404.854,98.5026 407.5,99C 408.085,100.302 408.751,101.469 409.5,102.5C 409.66,104.153 410.326,105.486 411.5,106.5C 411.5,106.833 411.5,107.167 411.5,107.5C 411.66,109.153 412.326,110.486 413.5,111.5C 417.413,121.258 421.413,131.092 425.5,141C 421.789,141.825 418.122,141.659 414.5,140.5C 413.253,138.677 412.586,136.677 412.5,134.5C 410.085,133.186 407.252,132.519 404,132.5C 400.979,132.502 398.146,132.836 395.5,133.5C 394.642,136.05 393.642,138.55 392.5,141C 389.518,141.498 386.518,141.665 383.5,141.5C 383.629,139.784 383.962,138.117 384.5,136.5C 388.962,123.582 393.962,110.916 399.5,98.5 Z M 402.5,114.5 C 403.609,114.557 404.609,114.89 405.5,115.5C 406.202,118.44 407.202,121.273 408.5,124C 405.518,124.498 402.518,124.665 399.5,124.5C 400.363,122.579 401.029,120.579 401.5,118.5C 401.433,117.041 401.766,115.708 402.5,114.5 Z"/></g>
<g><path style="opacity:1" fill="#f4f4f6" d="M 441.5,100.5 C 444.66,104.148 447.327,108.148 449.5,112.5C 449.427,114.027 450.094,115.027 451.5,115.5C 452.338,115.842 452.672,116.508 452.5,117.5C 453.373,119.886 454.873,121.886 457,123.5C 457.49,122.207 457.657,120.873 457.5,119.5C 457.046,112.891 457.046,106.224 457.5,99.5C 460.054,98.612 462.721,98.2786 465.5,98.5C 465.5,112.833 465.5,127.167 465.5,141.5C 462.813,141.664 460.146,141.497 457.5,141C 452.692,133.041 447.358,125.541 441.5,118.5C 441.5,117.833 441.5,117.167 441.5,116.5C 441.013,115.527 440.513,114.527 440,113.5C 439.5,122.827 439.334,132.161 439.5,141.5C 437.043,141.792 434.376,141.792 431.5,141.5C 431.5,127.167 431.5,112.833 431.5,98.5C 435.162,98.0339 438.495,98.7006 441.5,100.5 Z"/></g>
<g><path style="opacity:1" fill="#fbfbfc" d="M 539.5,115.5 C 540.5,115.5 541.5,115.5 542.5,115.5C 542.5,109.833 542.5,104.167 542.5,98.5C 545.167,98.5 547.833,98.5 550.5,98.5C 550.5,112.833 550.5,127.167 550.5,141.5C 547.624,141.792 544.957,141.792 542.5,141.5C 542.666,135.491 542.499,129.491 542,123.5C 535.924,122.524 529.758,122.19 523.5,122.5C 523.5,128.833 523.5,135.167 523.5,141.5C 521.043,141.792 518.376,141.792 515.5,141.5C 515.5,127.167 515.5,112.833 515.5,98.5C 518.167,98.5 520.833,98.5 523.5,98.5C 523.5,104.167 523.5,109.833 523.5,115.5C 528.833,115.5 534.167,115.5 539.5,115.5 Z"/></g>
<g><path style="opacity:1" fill="#fafbfb" d="M 569.5,133.5 C 576.697,133.366 583.863,133.033 591,132.5C 591.498,135.482 591.665,138.482 591.5,141.5C 580.957,141.56 570.624,141.56 560.5,141.5C 560.5,127.167 560.5,112.833 560.5,98.5C 570.167,98.5 579.833,98.5 589.5,98.5C 589.5,100.833 589.5,103.167 589.5,105.5C 582.5,105.5 575.5,105.5 568.5,105.5C 568.5,108.833 568.5,112.167 568.5,115.5C 572.5,115.5 576.5,115.5 580.5,115.5C 580.5,117.833 580.5,120.167 580.5,122.5C 576.5,122.5 572.5,122.5 568.5,122.5C 568.185,126.371 568.518,130.038 569.5,133.5 Z"/></g>
<g><path style="opacity:1" fill="#fafafa" d="M 607.5,133.5 C 614.5,133.5 621.5,133.5 628.5,133.5C 628.5,136.167 628.5,138.833 628.5,141.5C 618.795,141.503 609.128,141.503 599.5,141.5C 599.5,127.167 599.5,112.833 599.5,98.5C 601.833,98.5 604.167,98.5 606.5,98.5C 606.172,110.345 606.505,122.012 607.5,133.5 Z"/></g>
<g><path style="opacity:1" fill="#eeeef1" d="M 647.5,98.5 C 651.162,98.0339 654.495,98.7006 657.5,100.5C 657.5,101.167 657.5,101.833 657.5,102.5C 657.66,104.153 658.326,105.486 659.5,106.5C 659.5,106.833 659.5,107.167 659.5,107.5C 659.935,110.157 660.935,112.491 662.5,114.5C 663.954,115.52 664.287,116.687 663.5,118C 665.155,119.444 665.822,121.278 665.5,123.5C 665.66,125.153 666.326,126.486 667.5,127.5C 667.5,127.833 667.5,128.167 667.5,128.5C 667.427,130.027 668.094,131.027 669.5,131.5C 670.539,134.782 671.872,137.948 673.5,141C 673,141.5 672.5,142 672,142.5C 668.871,141.87 665.704,141.204 662.5,140.5C 661.826,138.805 661.159,137.138 660.5,135.5C 660.5,134.5 660.5,133.5 660.5,132.5C 654.642,132.178 648.975,132.511 643.5,133.5C 642.423,136.307 641.423,139.14 640.5,142C 637.417,141.714 634.417,141.548 631.5,141.5C 631.433,140.041 631.766,138.708 632.5,137.5C 636.693,124.126 641.693,111.126 647.5,98.5 Z M 650.5,114.5 C 651.609,114.557 652.609,114.89 653.5,115.5C 654.129,118.397 655.129,121.064 656.5,123.5C 653.346,124.967 650.346,124.634 647.5,122.5C 647.5,122.167 647.5,121.833 647.5,121.5C 649.213,120.365 649.88,118.698 649.5,116.5C 649.833,115.833 650.167,115.167 650.5,114.5 Z"/></g>
<g><path style="opacity:1" fill="#f1f2f3" d="M 702.5,98.5 C 707.759,98.7924 711.092,101.459 712.5,106.5C 712.599,109.237 712.265,111.904 711.5,114.5C 711.672,115.492 711.338,116.158 710.5,116.5C 708.618,117.221 708.285,118.221 709.5,119.5C 713.764,122.882 715.098,127.215 713.5,132.5C 712.596,133.209 712.263,134.209 712.5,135.5C 710.996,137.836 708.996,139.669 706.5,141C 702.15,141.368 697.817,141.868 693.5,142.5C 688.868,141.685 684.201,141.352 679.5,141.5C 679.5,127.167 679.5,112.833 679.5,98.5C 687.167,98.5 694.833,98.5 702.5,98.5 Z M 700.5,106.5 C 704.5,109.167 704.5,111.833 700.5,114.5C 696.664,114.126 692.664,114.126 688.5,114.5C 688.232,111.881 688.565,109.381 689.5,107C 693.272,106.915 696.939,106.748 700.5,106.5 Z M 690.5,123.5 C 694.182,123.335 697.848,123.501 701.5,124C 704.203,125.82 705.036,128.32 704,131.5C 703.25,132.126 702.416,132.626 701.5,133C 697.127,132.651 692.794,132.818 688.5,133.5C 688.06,129.821 688.727,126.488 690.5,123.5 Z"/></g>
<g><path style="opacity:0.583" fill="#6f6f79" d="M 550.5,141.5 C 550.5,127.167 550.5,112.833 550.5,98.5C 547.833,98.5 545.167,98.5 542.5,98.5C 542.5,104.167 542.5,109.833 542.5,115.5C 541.5,115.5 540.5,115.5 539.5,115.5C 539.5,115.167 539.5,114.833 539.5,114.5C 540.239,114.631 540.906,114.464 541.5,114C 541.359,108.651 541.359,103.151 541.5,97.5C 544.833,97.5 548.167,97.5 551.5,97.5C 551.829,112.343 551.496,127.01 550.5,141.5 Z"/></g>
<g><path style="opacity:0.567" fill="#9898a9" d="M 465.5,141.5 C 465.5,127.167 465.5,112.833 465.5,98.5C 462.721,98.2786 460.054,98.612 457.5,99.5C 456.262,99.19 456.262,98.69 457.5,98C 460.5,97.3333 463.5,97.3333 466.5,98C 466.957,98.414 467.291,98.914 467.5,99.5C 466.849,113.628 466.183,127.628 465.5,141.5 Z"/></g>
<g><path style="opacity:0.031" fill="#38374a" d="M 241.5,102.5 C 242.906,102.973 243.573,103.973 243.5,105.5C 242.094,105.027 241.427,104.027 241.5,102.5 Z"/></g>
<g><path style="opacity:0.039" fill="#4d5768" d="M 409.5,102.5 C 411.104,103.287 411.771,104.62 411.5,106.5C 410.326,105.486 409.66,104.153 409.5,102.5 Z"/></g>
<g><path style="opacity:0.043" fill="#4d4d5b" d="M 657.5,102.5 C 659.104,103.287 659.771,104.62 659.5,106.5C 658.326,105.486 657.66,104.153 657.5,102.5 Z"/></g>
<g><path style="opacity:0.447" fill="#6e6a80" d="M 731.5,106.5 C 731.5,108.167 731.5,109.833 731.5,111.5C 728.833,109.833 728.833,108.167 731.5,106.5 Z"/></g>
<g><path style="opacity:0.02" fill="#424248" d="M 411.5,107.5 C 413.104,108.287 413.771,109.62 413.5,111.5C 412.326,110.486 411.66,109.153 411.5,107.5 Z"/></g>
<g><path style="opacity:0.071" fill="#646579" d="M 700.5,106.5 C 696.939,106.748 693.272,106.915 689.5,107C 688.565,109.381 688.232,111.881 688.5,114.5C 692.664,114.126 696.664,114.126 700.5,114.5C 696.366,115.485 692.032,115.818 687.5,115.5C 687.5,112.167 687.5,108.833 687.5,105.5C 692.032,105.182 696.366,105.515 700.5,106.5 Z"/></g>
<g><path style="opacity:0.027" fill="#292845" d="M 712.5,106.5 C 713.152,107.449 713.486,108.615 713.5,110C 713.693,112.008 713.026,113.508 711.5,114.5C 712.265,111.904 712.599,109.237 712.5,106.5 Z"/></g>
<g><path style="opacity:1" fill="#5aa0f8" d="M 79.5,111.5 C 81.6104,120.78 83.6104,130.113 85.5,139.5C 77.6866,137.839 69.6866,136.839 61.5,136.5C 59.5518,133.379 57.3852,130.379 55,127.5C 54.2474,121.923 55.0807,116.589 57.5,111.5C 61.5097,107.111 66.5097,105.611 72.5,107C 75.2387,108.026 77.572,109.526 79.5,111.5 Z"/></g>
<g><path style="opacity:0.594" fill="#a2a2b3" d="M 359.5,98.5 C 356.833,98.5 354.167,98.5 351.5,98.5C 351.5,112.833 351.5,127.167 351.5,141.5C 350.922,142.547 350.256,142.38 349.5,141C 350.49,126.579 350.824,112.079 350.5,97.5C 353.713,97.19 356.713,97.5233 359.5,98.5 Z"/></g>
<g><path style="opacity:0.039" fill="#424149" d="M 405.5,115.5 C 404.609,114.89 403.609,114.557 402.5,114.5C 402.312,112.897 402.812,111.563 404,110.5C 404.608,112.154 405.108,113.821 405.5,115.5 Z"/></g>
<g><path style="opacity:0.027" fill="#534c6b" d="M 659.5,107.5 C 661.448,109.32 662.448,111.654 662.5,114.5C 660.935,112.491 659.935,110.157 659.5,107.5 Z"/></g>
<g><path style="opacity:0.051" fill="#4f4959" d="M 237.5,115.5 C 236.609,114.89 235.609,114.557 234.5,114.5C 234.312,112.897 234.812,111.563 236,110.5C 236.608,112.154 237.108,113.821 237.5,115.5 Z"/></g>
<g><path style="opacity:0.035" fill="#453c53" d="M 324.5,114.5 C 323.391,114.557 322.391,114.89 321.5,115.5C 322.395,111.162 323.395,110.829 324.5,114.5 Z"/></g>
<g><path style="opacity:0.031" fill="#3f3d4a" d="M 653.5,115.5 C 652.609,114.89 651.609,114.557 650.5,114.5C 650.312,112.897 650.812,111.563 652,110.5C 652.608,112.154 653.108,113.821 653.5,115.5 Z"/></g>
<g><path style="opacity:0.227" fill="#52505b" d="M 449.5,112.5 C 450.906,112.973 451.573,113.973 451.5,115.5C 450.094,115.027 449.427,114.027 449.5,112.5 Z"/></g>
<g><path style="opacity:0.314" fill="#767688" d="M 702.5,98.5 C 694.833,98.5 687.167,98.5 679.5,98.5C 679.5,112.833 679.5,127.167 679.5,141.5C 678.504,127.01 678.171,112.343 678.5,97.5C 686.684,97.1743 694.684,97.5076 702.5,98.5 Z"/></g>
<g><path style="opacity:0.925" fill="#5877af" d="M 162.5,111.5 C 158.612,110.239 154.779,108.906 151,107.5C 147.806,109.006 144.64,110.506 141.5,112C 138.707,117.061 136.707,122.228 135.5,127.5C 135.147,111.344 142.814,104.844 158.5,108C 160.324,108.66 161.657,109.827 162.5,111.5 Z"/></g>
<g><path style="opacity:1" fill="#5c80bc" d="M 57.5,111.5 C 55.0807,116.589 54.2474,121.923 55,127.5C 57.3852,130.379 59.5518,133.379 61.5,136.5C 56.8799,135.308 54.0466,132.308 53,127.5C 51.3159,121.115 52.8159,115.781 57.5,111.5 Z"/></g>
<g><path style="opacity:0.071" fill="#2a2a34" d="M 710.5,116.5 C 710.443,117.609 710.11,118.609 709.5,119.5C 708.285,118.221 708.618,117.221 710.5,116.5 Z"/></g>
<g><path style="opacity:0.078" fill="#414158" d="M 441.5,100.5 C 438.495,98.7006 435.162,98.0339 431.5,98.5C 431.5,112.833 431.5,127.167 431.5,141.5C 430.504,127.01 430.171,112.343 430.5,97.5C 433.85,97.335 437.183,97.5017 440.5,98C 441.252,98.6708 441.586,99.5041 441.5,100.5 Z"/></g>
<g><path style="opacity:0.392" fill="#696578" d="M 483.5,116.5 C 484.686,118.792 484.686,121.126 483.5,123.5C 482.167,121.167 482.167,118.833 483.5,116.5 Z"/></g>
<g><path style="opacity:0.012" fill="#56575f" d="M 649.5,116.5 C 649.88,118.698 649.213,120.365 647.5,121.5C 647.796,119.597 648.463,117.93 649.5,116.5 Z"/></g>
<g><path style="opacity:0.02" fill="#4f425b" d="M 452.5,117.5 C 453.794,118.29 454.961,119.29 456,120.5C 456.383,119.944 456.883,119.611 457.5,119.5C 457.657,120.873 457.49,122.207 457,123.5C 454.873,121.886 453.373,119.886 452.5,117.5 Z"/></g>
<g><path style="opacity:1" fill="#5ba1f9" d="M 162.5,111.5 C 162.128,114.022 162.961,116.022 165,117.5C 165.498,120.817 165.665,124.15 165.5,127.5C 164.5,127.5 163.5,127.5 162.5,127.5C 162.5,128.833 162.5,130.167 162.5,131.5C 161.5,131.5 160.5,131.5 159.5,131.5C 159.5,132.833 159.5,134.167 159.5,135.5C 151.364,136.909 143.198,138.243 135,139.5C 134.5,139.167 134,138.833 133.5,138.5C 135.184,135.388 135.85,132.054 135.5,128.5C 135.5,128.167 135.5,127.833 135.5,127.5C 136.707,122.228 138.707,117.061 141.5,112C 144.64,110.506 147.806,109.006 151,107.5C 154.779,108.906 158.612,110.239 162.5,111.5 Z"/></g>
<g><path style="opacity:0.024" fill="#373243" d="M 401.5,118.5 C 401.029,120.579 400.363,122.579 399.5,124.5C 398.957,124.44 398.624,124.107 398.5,123.5C 398.957,121.402 399.957,119.736 401.5,118.5 Z"/></g>
<g><path style="opacity:0.631" fill="#888893" d="M 232.5,119.5 C 232.938,119.435 233.272,119.601 233.5,120C 232.833,121.333 232.167,122.667 231.5,124C 234.146,124.497 236.813,124.664 239.5,124.5C 239.5,123.5 239.5,122.5 239.5,121.5C 240.391,122.261 241.058,123.261 241.5,124.5C 237.893,125.489 234.226,125.823 230.5,125.5C 230.595,123.214 231.262,121.214 232.5,119.5 Z"/></g>
<g><path style="opacity:0.298" fill="#6b6d7d" d="M 441.5,116.5 C 440.167,117.167 440.167,117.833 441.5,118.5C 440.863,126.266 440.196,133.933 439.5,141.5C 439.334,132.161 439.5,122.827 440,113.5C 440.513,114.527 441.013,115.527 441.5,116.5 Z"/></g>
<g><path style="opacity:0.633" fill="#9c9ca6" d="M 647.5,122.5 C 650.346,124.634 653.346,124.967 656.5,123.5C 657.043,123.56 657.376,123.893 657.5,124.5C 653.893,125.489 650.226,125.823 646.5,125.5C 646.263,124.209 646.596,123.209 647.5,122.5 Z"/></g>
<g><path style="opacity:0.039" fill="#585768" d="M 665.5,123.5 C 667.104,124.287 667.771,125.62 667.5,127.5C 666.326,126.486 665.66,125.153 665.5,123.5 Z"/></g>
<g><path style="opacity:0.876" fill="#577bb2" d="M 79.5,111.5 C 81.1361,112.749 82.3028,114.416 83,116.5C 83.4477,142.451 96.281,152.451 121.5,146.5C 121.082,147.222 120.416,147.722 119.5,148C 115.211,148.878 110.878,149.378 106.5,149.5C 101.399,149.076 96.3988,148.076 91.5,146.5C 91.5,147.833 91.5,149.167 91.5,150.5C 89.3533,146.189 86.02,143.022 81.5,141C 74.7053,139.437 68.0387,137.937 61.5,136.5C 69.6866,136.839 77.6866,137.839 85.5,139.5C 83.6104,130.113 81.6104,120.78 79.5,111.5 Z"/></g>
<g><path style="opacity:0.635" fill="#777388" d="M 281.5,122.5 C 281.143,124.589 280.477,126.589 279.5,128.5C 278.571,127.311 278.238,125.978 278.5,124.5C 279.5,123.833 280.5,123.167 281.5,122.5 Z"/></g>
<g><path style="opacity:0.086" fill="#45435d" d="M 539.5,114.5 C 539.5,114.833 539.5,115.167 539.5,115.5C 534.167,115.5 528.833,115.5 523.5,115.5C 523.5,109.833 523.5,104.167 523.5,98.5C 520.833,98.5 518.167,98.5 515.5,98.5C 515.5,112.833 515.5,127.167 515.5,141.5C 514.504,127.01 514.171,112.343 514.5,97.5C 517.833,97.5 521.167,97.5 524.5,97.5C 525.134,103.145 525.468,108.811 525.5,114.5C 530.688,114.128 535.355,114.128 539.5,114.5 Z"/></g>
<g><path style="opacity:0.812" fill="#bebecb" d="M 608.5,127.5 C 607.539,129.265 607.205,131.265 607.5,133.5C 606.505,122.012 606.172,110.345 606.5,98.5C 604.167,98.5 601.833,98.5 599.5,98.5C 599.5,112.833 599.5,127.167 599.5,141.5C 598.624,141.631 597.957,141.298 597.5,140.5C 598.483,126.215 598.816,111.882 598.5,97.5C 601.5,97.5 604.5,97.5 607.5,97.5C 607.193,107.582 607.526,117.582 608.5,127.5 Z"/></g>
<g><path style="opacity:0.581" fill="#888499" d="M 542.5,141.5 C 541.711,141.217 541.044,140.717 540.5,140C 540.399,134.805 540.732,129.805 541.5,125C 539.03,123.886 536.364,123.386 533.5,123.5C 530.911,123.527 528.411,123.861 526,124.5C 525.685,130.384 524.851,136.051 523.5,141.5C 523.5,135.167 523.5,128.833 523.5,122.5C 529.758,122.19 535.924,122.524 542,123.5C 542.499,129.491 542.666,135.491 542.5,141.5 Z"/></g>
<g><path style="opacity:0.067" fill="#3d3d52" d="M 690.5,123.5 C 688.727,126.488 688.06,129.821 688.5,133.5C 687.521,130.375 687.187,127.042 687.5,123.5C 688.5,123.5 689.5,123.5 690.5,123.5 Z"/></g>
<g><path style="opacity:0.102" fill="#564f70" d="M 289.5,125.5 C 289.88,127.698 289.213,129.365 287.5,130.5C 287.796,128.597 288.463,126.93 289.5,125.5 Z"/></g>
<g><path style="opacity:0.027" fill="#37364c" d="M 667.5,128.5 C 668.906,128.973 669.573,129.973 669.5,131.5C 668.094,131.027 667.427,130.027 667.5,128.5 Z"/></g>
<g><path style="opacity:0.051" fill="#3a3a4a" d="M 244.5,134.5 C 238.307,132.891 232.307,133.225 226.5,135.5C 226.414,134.504 226.748,133.671 227.5,133C 230.333,132.833 233.167,132.667 236,132.5C 239.252,132.519 242.085,133.186 244.5,134.5 Z"/></g>
<g><path style="opacity:0.043" fill="#3d3b4d" d="M 332.5,135.5 C 326.709,133.199 320.709,132.866 314.5,134.5C 320.074,132.547 326.074,131.88 332.5,132.5C 332.5,133.5 332.5,134.5 332.5,135.5 Z"/></g>
<g><path style="opacity:0.094" fill="#3b3c50" d="M 359.5,130.5 C 366.408,132.091 373.408,133.091 380.5,133.5C 373.5,133.5 366.5,133.5 359.5,133.5C 359.5,132.5 359.5,131.5 359.5,130.5 Z"/></g>
<g><path style="opacity:0.055" fill="#3b3a4c" d="M 395.5,133.5 C 398.146,132.836 400.979,132.502 404,132.5C 407.252,132.519 410.085,133.186 412.5,134.5C 406.925,133.548 401.259,133.214 395.5,133.5 Z"/></g>
<g><path style="opacity:0.082" fill="#3b3a51" d="M 608.5,127.5 C 608.5,129.167 608.5,130.833 608.5,132.5C 615.354,132.176 622.021,132.509 628.5,133.5C 621.5,133.5 614.5,133.5 607.5,133.5C 607.205,131.265 607.539,129.265 608.5,127.5 Z"/></g>
<g><path style="opacity:0.031" fill="#3d3b4d" d="M 643.5,133.5 C 648.975,132.511 654.642,132.178 660.5,132.5C 660.5,133.5 660.5,134.5 660.5,135.5C 655.13,133.621 649.463,132.955 643.5,133.5 Z"/></g>
<g><path style="opacity:0.196" fill="#524380" d="M 713.5,132.5 C 713.938,132.435 714.272,132.601 714.5,133C 713.934,133.995 713.267,134.828 712.5,135.5C 712.263,134.209 712.596,133.209 713.5,132.5 Z"/></g>
<g><path style="opacity:0.043" fill="#2f2e40" d="M 380.5,133.5 C 381.404,134.209 381.737,135.209 381.5,136.5C 382.5,136.5 383.5,136.5 384.5,136.5C 383.962,138.117 383.629,139.784 383.5,141.5C 382.5,141.5 381.5,141.5 380.5,141.5C 380.5,138.833 380.5,136.167 380.5,133.5 Z"/></g>
<g><path style="opacity:0.043" fill="#32314a" d="M 628.5,133.5 C 629.283,135.328 630.616,136.661 632.5,137.5C 631.766,138.708 631.433,140.041 631.5,141.5C 630.5,141.5 629.5,141.5 628.5,141.5C 628.5,138.833 628.5,136.167 628.5,133.5 Z"/></g>
<g><path style="opacity:0.6" fill="#52496e" d="M 303.5,138.5 C 303.285,140.179 303.952,141.179 305.5,141.5C 304.151,142.797 302.818,142.63 301.5,141C 302.066,140.005 302.733,139.172 303.5,138.5 Z"/></g>
<g><path style="opacity:1" fill="#587cb3" d="M 162.5,111.5 C 167.056,115.831 168.556,121.164 167,127.5C 165.221,131.612 162.388,134.778 158.5,137C 152.551,138.217 146.551,139.217 140.5,140C 134.706,142.3 130.373,146.133 127.5,151.5C 127.799,149.396 127.466,147.396 126.5,145.5C 124.929,146.309 123.262,146.643 121.5,146.5C 129.559,143.111 134.226,137.111 135.5,128.5C 135.85,132.054 135.184,135.388 133.5,138.5C 134,138.833 134.5,139.167 135,139.5C 143.198,138.243 151.364,136.909 159.5,135.5C 159.5,134.167 159.5,132.833 159.5,131.5C 160.5,131.5 161.5,131.5 162.5,131.5C 162.5,130.167 162.5,128.833 162.5,127.5C 163.5,127.5 164.5,127.5 165.5,127.5C 165.665,124.15 165.498,120.817 165,117.5C 162.961,116.022 162.128,114.022 162.5,111.5 Z"/></g>
<g><path style="opacity:0.749" fill="#5875aa" d="M 91.5,150.5 C 92.9312,151.903 94.0978,153.569 95,155.5C 95.3333,160.167 95.6667,164.833 96,169.5C 98.5042,171.174 100.004,173.507 100.5,176.5C 97.8477,175.344 96.0143,173.344 95,170.5C 93.9824,163.798 92.8157,157.131 91.5,150.5 Z"/></g>
<g><path style="opacity:1" fill="#5aa1f8" d="M 127.5,151.5 C 126.685,152.429 125.852,153.429 125,154.5C 124.667,158.833 124.333,163.167 124,167.5C 122.981,168.687 121.814,169.687 120.5,170.5C 119.548,172.045 119.215,173.712 119.5,175.5C 113.264,177.613 106.93,177.946 100.5,176.5C 100.004,173.507 98.5042,171.174 96,169.5C 95.6667,164.833 95.3333,160.167 95,155.5C 94.0978,153.569 92.9312,151.903 91.5,150.5C 91.5,149.167 91.5,147.833 91.5,146.5C 96.3988,148.076 101.399,149.076 106.5,149.5C 110.878,149.378 115.211,148.878 119.5,148C 120.416,147.722 121.082,147.222 121.5,146.5C 123.262,146.643 124.929,146.309 126.5,145.5C 127.466,147.396 127.799,149.396 127.5,151.5 Z"/></g>
<g><path style="opacity:1" fill="#587fba" d="M 127.5,151.5 C 126.75,157.834 125.916,164.167 125,170.5C 118.591,180.645 110.424,182.645 100.5,176.5C 106.93,177.946 113.264,177.613 119.5,175.5C 119.215,173.712 119.548,172.045 120.5,170.5C 121.814,169.687 122.981,168.687 124,167.5C 124.333,163.167 124.667,158.833 125,154.5C 125.852,153.429 126.685,152.429 127.5,151.5 Z"/></g>
</svg>
