<?xml version="1.0" encoding="UTF-8"?>
<svg id="Layer_2" data-name="Layer 2" xmlns="http://www.w3.org/2000/svg" viewBox="0 0 333.65 319.08">
  <defs>
    <style>
      .cls-1 {
        fill: #679fd6;
        stroke-width: 0px;
      }
    </style>
  </defs>
  <circle class="cls-1" cx="175.91" cy="52.01" r="43.02"/>
  <path class="cls-1" d="M178.06,318.09c20.89-1.42,37.52-15.52,40.74-36.66,3.24-19.63.97-34.21,15.32-50.51,6.64-7.7,15.32-14.07,24.76-18.02,24.07-9.73,51.41-3.46,66.51-26.01,10.37-14.18,11.23-35.29,1.14-49.51-9.44-14.12-29.51-19.1-45.54-14.53-21.09,5.78-26.9,23.44-29.75,43.21-3.2,24.1-14.34,44.66-34.93,58.19-25.74,16.68-54.89,16.72-80.66.11-16.92-11-29.18-28.74-33.23-48.52-2.93-13.16-3.62-28.45-11.61-39.42-14.66-20.6-50.45-20.04-64.99.21-13.98,18.5-7.97,48.36,11.42,60.87,12.23,8.18,26.65,8.08,40.77,10.99,14.34,2.52,28.5,10,38.33,20.91,16.73,17.78,12.87,33.51,17.35,55.18,1.93,8.32,5.83,16.24,12.27,21.98,8.54,7.64,20.57,12.07,31.91,11.54h.19Z"/>
</svg>